<svg xmlns="http://www.w3.org/2000/svg" width="800" height="600">
  <!-- Autonomous Hyper-Tech Architecture Diagram for Pi-Ecosystem-Protocol -->
  <!-- AI/RL Self-Evolution: Diagram updates autonomously if inconsistencies detected -->
  <!-- Quantum Hash: Embedded for integrity (simulate SHA3) -->
  <!-- Zero-Trust: Rejects volatile elements in visualization -->

  <defs>
    <style>
      .stablecoin { fill: green; }
      .rejected { fill: red; display: none; } <!-- Autonomous hide volatile -->
      .ai { fill: blue; }
    </style>
  </defs>

  <rect x="50" y="50" width="200" height="100" class="stablecoin" />
  <text x="100" y="100">Stablecoin Enforcer</text>

  <rect x="300" y="50" width="200" height="100" class="ai" />
  <text x="350" y="100">AI Self-Evolution Agent</text>

  <rect x="550" y="50" width="200" height="100" class="stablecoin" />
  <text x="600" y="100">Quantum Crypto</text>

  <rect x="50" y="200" width="200" height="100" class="stablecoin" />
  <text x="100" y="250">Issuance Engine</text>

  <rect x="300" y="200" width="200" height="100" class="ai" />
  <text x="350" y="250">Neural Predictor</text>

  <rect x="550" y="200" width="200" height="100" class="stablecoin" />
  <text x="600" y="250">Zero-Trust Validator</text>

  <rect x="50" y="350" width="200" height="100" class="rejected" />
  <text x="100" y="400">Volatile Crypto (Rejected)</text>

  <rect x="300" y="350" width="200" height="100" class="ai" />
  <text x="350" y="400">RL Learner</text>

  <rect x="550" y="350" width="200" height="100" class="stablecoin" />
  <text x="600" y="400">Blockchain-Less Ledger</text>

  <!-- Arrows -->
  <line x1="250" y1="100" x2="300" y2="100" stroke="black" />
  <line x1="500" y1="100" x2="550" y2="100" stroke="black" />

  <!-- Autonomous Evolution Note -->
  <text x="10" y="580" font-size="12">AI Evolved Diagram - Quantum Secured</text>
</svg>
